<svg width="51.750000" height="16.984619" viewBox="0 0 51.75 16.9846" fill="none" xmlns="http://www.w3.org/2000/svg" xmlns:xlink="http://www.w3.org/1999/xlink">
	<desc>
			Created with Pixso.
	</desc>
	<defs/>
	<path id="Vector 1" d="M0 7.98L39 7.98L39 8.98L38.68 8.03Q39.41 7.79 39.82 7.09Q40.03 6.74 40.14 6.32Q40.25 5.89 40.25 5.42Q40.25 4.94 40.13 4.49Q40.02 4.02 39.8 3.62Q39.35 2.77 38.55 2.37Q38.23 2.21 37.8 2.11Q37.34 2.01 36.84 2Q36.32 1.98 35.81 2.07Q35.29 2.16 34.84 2.35Q33.88 2.75 33.41 3.53Q32.85 4.45 32.99 5.88L31 6.08Q30.79 3.98 31.7 2.49Q32.12 1.8 32.76 1.28Q33.33 0.81 34.06 0.5Q34.73 0.23 35.48 0.1Q36.17 -0.02 36.89 0Q37.59 0.02 38.24 0.16Q38.9 0.32 39.44 0.59Q40.14 0.93 40.69 1.49Q41.2 2 41.56 2.67Q41.9 3.3 42.08 4.01Q42.25 4.7 42.25 5.42Q42.25 6.14 42.07 6.81Q41.89 7.51 41.54 8.11Q41.17 8.74 40.62 9.2Q40.04 9.69 39.31 9.93L39.16 9.98L0 9.98L0 7.98Z" fill="#EF272C" fill-opacity="1.000000" fill-rule="evenodd"/>
	<line id="Line 5" x1="0.000000" y1="15.984619" x2="51.750000" y2="15.984619" stroke="#EF272C" stroke-opacity="1.000000" stroke-width="2.000000"/>
</svg>