<svg width="51.259766" height="16.984619" viewBox="0 0 51.2598 16.9846" fill="none" xmlns="http://www.w3.org/2000/svg" xmlns:xlink="http://www.w3.org/1999/xlink">
	<desc>
			Created with Pixso.
	</desc>
	<defs/>
	<path id="Vector 2" d="M51.25 7.98L12.25 7.98L12.25 8.98L12.57 8.03Q11.84 7.79 11.43 7.09Q11.22 6.74 11.11 6.32Q11 5.89 11 5.42Q11 4.94 11.12 4.49Q11.23 4.02 11.45 3.62Q11.9 2.77 12.7 2.37Q13.02 2.21 13.45 2.11Q13.91 2.01 14.41 2Q14.93 1.98 15.44 2.07Q15.96 2.16 16.41 2.35Q17.37 2.75 17.84 3.53Q18.4 4.45 18.26 5.88L20.25 6.08Q20.46 3.98 19.55 2.49Q19.13 1.8 18.49 1.28Q17.92 0.81 17.19 0.5Q16.52 0.23 15.77 0.1Q15.08 -0.02 14.36 0Q13.66 0.02 13.01 0.16Q12.35 0.32 11.81 0.59Q11.11 0.93 10.56 1.49Q10.05 2 9.69 2.67Q9.35 3.3 9.17 4.01Q9 4.7 9 5.42Q9 6.14 9.18 6.81Q9.36 7.51 9.71 8.11Q10.08 8.74 10.63 9.2Q11.21 9.69 11.94 9.93L12.09 9.98L51.25 9.98L51.25 7.98Z" fill="#EF272C" fill-opacity="1.000000" fill-rule="evenodd"/>
	<line id="Line 4" x1="0.000000" y1="15.984619" x2="51.259766" y2="15.984619" stroke="#EF272C" stroke-opacity="1.000000" stroke-width="2.000000"/>
</svg>
