<svg width="16.467285" height="16.457527" viewBox="0 0 16.4673 16.4575" fill="none" xmlns="http://www.w3.org/2000/svg" xmlns:xlink="http://www.w3.org/1999/xlink">
	<desc>
			Created with Pixso.
	</desc>
	<defs/>
	<path id="Icon" d="M0.83 6.56C2.74 10.73 6.15 14.05 10.39 15.85L11.07 16.15C12.63 16.84 14.46 16.32 15.4 14.9L16.29 13.58C16.58 13.15 16.49 12.57 16.09 12.24L13.08 9.81C12.64 9.46 11.99 9.54 11.65 10L10.72 11.25C8.32 10.07 6.38 8.13 5.2 5.74L6.46 4.81C6.92 4.47 7 3.82 6.64 3.38L4.21 0.37C3.89 -0.04 3.31 -0.12 2.88 0.16L1.55 1.06C0.12 2.01 -0.4 3.85 0.31 5.41L0.83 6.55L0.83 6.56Z" fill="#EF272C" fill-opacity="1.000000" fill-rule="nonzero"/>
</svg>
