<svg width="16.511719" height="20.166939" viewBox="0 0 16.5117 20.1669" fill="none" xmlns="http://www.w3.org/2000/svg" xmlns:xlink="http://www.w3.org/1999/xlink">
	<desc>
			Created with Pixso.
	</desc>
	<defs/>
	<path id="Icon" d="M8.04 0C3.85 0 0.37 3.2 0.02 7.37C-0.16 9.62 0.53 11.85 1.96 13.59L6.75 19.45C7.53 20.4 8.98 20.4 9.75 19.45L14.54 13.59C15.97 11.85 16.66 9.62 16.48 7.37C16.13 3.2 12.65 0 8.47 0L8.04 0ZM3.5 8.5C3.5 5.87 5.63 3.75 8.25 3.75C10.87 3.75 13 5.87 13 8.5C13 11.12 10.87 13.25 8.25 13.25C5.63 13.25 3.5 11.12 3.5 8.5ZM8.25 5.25C6.46 5.25 5 6.7 5 8.5C5 10.29 6.46 11.75 8.25 11.75C10.05 11.75 11.5 10.29 11.5 8.5C11.5 6.7 10.05 5.25 8.25 5.25Z" fill="#EF272C" fill-opacity="1.000000" fill-rule="evenodd"/>
</svg>
